<?xml version="1.0" encoding="UTF-8" standalone="no"?>
<!DOCTYPE svg PUBLIC "-//W3C//DTD SVG 1.1//EN"
 "http://www.w3.org/Graphics/SVG/1.1/DTD/svg11.dtd">
<!-- Generated by graphviz version 2.36.0 (20140111.2315)
 -->
<!-- Title: SpaceVecAlg Pages: 1 -->
<svg width="1112pt" height="84pt"
 viewBox="0.00 0.00 1112.00 84.00" xmlns="http://www.w3.org/2000/svg" xmlns:xlink="http://www.w3.org/1999/xlink">
<g id="graph0" class="graph" transform="scale(1 1) rotate(0) translate(4 80)">
<title>SpaceVecAlg</title>
<polygon fill="white" stroke="none" points="-4,4 -4,-80 1108,-80 1108,4 -4,4"/>
<!-- Node1 -->
<g id="node1" class="node"><title>Node1</title>
<polygon fill="#bfbfbf" stroke="black" points="509,-56.5 509,-75.5 585,-75.5 585,-56.5 509,-56.5"/>
<text text-anchor="middle" x="547" y="-63.5" font-family="Helvetica,sans-Serif" font-size="10.00">SpaceVecAlg</text>
</g>
<!-- Node2 -->
<g id="node2" class="node"><title>Node2</title>
<polygon fill="white" stroke="#bfbfbf" points="0,-0.5 0,-19.5 40,-19.5 40,-0.5 0,-0.5"/>
<text text-anchor="middle" x="20" y="-7.5" font-family="Helvetica,sans-Serif" font-size="10.00">limits</text>
</g>
<!-- Node1&#45;&gt;Node2 -->
<g id="edge1" class="edge"><title>Node1&#45;&gt;Node2</title>
<path fill="none" stroke="midnightblue" d="M508.815,-64.2841C426.424,-62.1559 225.874,-53.8363 50.0842,-19.8042"/>
<polygon fill="midnightblue" stroke="midnightblue" points="50.6294,-16.3444 40.1416,-17.8463 49.2769,-23.2125 50.6294,-16.3444"/>
</g>
<!-- Node3 -->
<g id="node3" class="node"><title>Node3</title>
<polygon fill="white" stroke="#bfbfbf" points="58,-0.5 58,-19.5 110,-19.5 110,-0.5 58,-0.5"/>
<text text-anchor="middle" x="84" y="-7.5" font-family="Helvetica,sans-Serif" font-size="10.00">ostream</text>
</g>
<!-- Node1&#45;&gt;Node3 -->
<g id="edge2" class="edge"><title>Node1&#45;&gt;Node3</title>
<path fill="none" stroke="midnightblue" d="M508.949,-62.8817C435.574,-58.3924 269.34,-46.258 120.512,-20.0301"/>
<polygon fill="midnightblue" stroke="midnightblue" points="120.742,-16.5158 110.282,-18.1998 119.509,-23.4064 120.742,-16.5158"/>
</g>
<!-- Node4 -->
<g id="node4" class="node"><title>Node4</title>
<polygon fill="white" stroke="#bfbfbf" points="128.5,-0.5 128.5,-19.5 193.5,-19.5 193.5,-0.5 128.5,-0.5"/>
<text text-anchor="middle" x="161" y="-7.5" font-family="Helvetica,sans-Serif" font-size="10.00">Eigen/Core</text>
</g>
<!-- Node1&#45;&gt;Node4 -->
<g id="edge3" class="edge"><title>Node1&#45;&gt;Node4</title>
<path fill="none" stroke="midnightblue" d="M508.804,-61.1089C446.81,-54.5565 320.256,-40.1976 203.78,-20.1912"/>
<polygon fill="midnightblue" stroke="midnightblue" points="204.075,-16.6901 193.623,-18.4276 202.877,-23.5869 204.075,-16.6901"/>
</g>
<!-- Node5 -->
<g id="node5" class="node"><title>Node5</title>
<polygon fill="white" stroke="#bfbfbf" points="211.5,-0.5 211.5,-19.5 298.5,-19.5 298.5,-0.5 211.5,-0.5"/>
<text text-anchor="middle" x="255" y="-7.5" font-family="Helvetica,sans-Serif" font-size="10.00">Eigen/Geometry</text>
</g>
<!-- Node1&#45;&gt;Node5 -->
<g id="edge4" class="edge"><title>Node1&#45;&gt;Node5</title>
<path fill="none" stroke="midnightblue" d="M508.826,-57.9404C457.784,-48.5012 367.017,-31.7154 308.986,-20.9837"/>
<polygon fill="midnightblue" stroke="midnightblue" points="309.373,-17.496 298.903,-19.119 308.1,-24.3792 309.373,-17.496"/>
</g>
<!-- Node6 -->
<g id="node6" class="node"><title>Node6</title>
<g id="a_node6"><a xlink:href="a00007.html" target="_top" xlink:title="EigenTypedef.h">
<polygon fill="white" stroke="black" points="316.5,-0.5 316.5,-19.5 401.5,-19.5 401.5,-0.5 316.5,-0.5"/>
<text text-anchor="middle" x="359" y="-7.5" font-family="Helvetica,sans-Serif" font-size="10.00">EigenTypedef.h</text>
</a>
</g>
</g>
<!-- Node1&#45;&gt;Node6 -->
<g id="edge5" class="edge"><title>Node1&#45;&gt;Node6</title>
<path fill="none" stroke="midnightblue" d="M517.211,-56.4435C485.171,-47.2406 434.067,-32.5617 398.647,-22.3879"/>
<polygon fill="midnightblue" stroke="midnightblue" points="399.227,-18.9132 388.65,-19.5164 397.295,-25.6412 399.227,-18.9132"/>
</g>
<!-- Node7 -->
<g id="node7" class="node"><title>Node7</title>
<g id="a_node7"><a xlink:href="a00008.html" target="_top" xlink:title="EigenUtility.h">
<polygon fill="white" stroke="black" points="419.5,-0.5 419.5,-19.5 494.5,-19.5 494.5,-0.5 419.5,-0.5"/>
<text text-anchor="middle" x="457" y="-7.5" font-family="Helvetica,sans-Serif" font-size="10.00">EigenUtility.h</text>
</a>
</g>
</g>
<!-- Node1&#45;&gt;Node7 -->
<g id="edge6" class="edge"><title>Node1&#45;&gt;Node7</title>
<path fill="none" stroke="midnightblue" d="M532.54,-56.324C518.5,-47.9002 496.952,-34.9709 480.457,-25.0741"/>
<polygon fill="midnightblue" stroke="midnightblue" points="481.8,-21.7983 471.424,-19.6545 478.198,-27.8007 481.8,-21.7983"/>
</g>
<!-- Node8 -->
<g id="node8" class="node"><title>Node8</title>
<g id="a_node8"><a xlink:href="a00010.html" target="_top" xlink:title="MathFunc.h">
<polygon fill="white" stroke="black" points="513,-0.5 513,-19.5 581,-19.5 581,-0.5 513,-0.5"/>
<text text-anchor="middle" x="547" y="-7.5" font-family="Helvetica,sans-Serif" font-size="10.00">MathFunc.h</text>
</a>
</g>
</g>
<!-- Node1&#45;&gt;Node8 -->
<g id="edge7" class="edge"><title>Node1&#45;&gt;Node8</title>
<path fill="none" stroke="midnightblue" d="M547,-56.083C547,-49.0059 547,-38.8611 547,-29.9865"/>
<polygon fill="midnightblue" stroke="midnightblue" points="550.5,-29.751 547,-19.7511 543.5,-29.7511 550.5,-29.751"/>
</g>
<!-- Node9 -->
<g id="node9" class="node"><title>Node9</title>
<g id="a_node9"><a xlink:href="a00011.html" target="_top" xlink:title="MotionVec.h">
<polygon fill="white" stroke="black" points="599.5,-0.5 599.5,-19.5 670.5,-19.5 670.5,-0.5 599.5,-0.5"/>
<text text-anchor="middle" x="635" y="-7.5" font-family="Helvetica,sans-Serif" font-size="10.00">MotionVec.h</text>
</a>
</g>
</g>
<!-- Node1&#45;&gt;Node9 -->
<g id="edge8" class="edge"><title>Node1&#45;&gt;Node9</title>
<path fill="none" stroke="midnightblue" d="M561.139,-56.324C574.866,-47.9002 595.936,-34.9709 612.064,-25.0741"/>
<polygon fill="midnightblue" stroke="midnightblue" points="614.204,-27.8678 620.896,-19.6545 610.543,-21.9016 614.204,-27.8678"/>
</g>
<!-- Node10 -->
<g id="node10" class="node"><title>Node10</title>
<g id="a_node10"><a xlink:href="a00009.html" target="_top" xlink:title="ForceVec.h">
<polygon fill="white" stroke="black" points="688.5,-0.5 688.5,-19.5 755.5,-19.5 755.5,-0.5 688.5,-0.5"/>
<text text-anchor="middle" x="722" y="-7.5" font-family="Helvetica,sans-Serif" font-size="10.00">ForceVec.h</text>
</a>
</g>
</g>
<!-- Node1&#45;&gt;Node10 -->
<g id="edge9" class="edge"><title>Node1&#45;&gt;Node10</title>
<path fill="none" stroke="midnightblue" d="M574.729,-56.4435C604.426,-47.2801 651.716,-32.6876 684.669,-22.5192"/>
<polygon fill="midnightblue" stroke="midnightblue" points="685.877,-25.8094 694.4,-19.5164 683.813,-19.1206 685.877,-25.8094"/>
</g>
<!-- Node11 -->
<g id="node11" class="node"><title>Node11</title>
<g id="a_node11"><a xlink:href="a00014.html" target="_top" xlink:title="RBInertia.h">
<polygon fill="white" stroke="black" points="774,-0.5 774,-19.5 840,-19.5 840,-0.5 774,-0.5"/>
<text text-anchor="middle" x="807" y="-7.5" font-family="Helvetica,sans-Serif" font-size="10.00">RBInertia.h</text>
</a>
</g>
</g>
<!-- Node1&#45;&gt;Node11 -->
<g id="edge10" class="edge"><title>Node1&#45;&gt;Node11</title>
<path fill="none" stroke="midnightblue" d="M585.028,-57.1362C626.325,-48.5914 694.513,-34.4684 763.488,-20.1036"/>
<polygon fill="midnightblue" stroke="midnightblue" points="764.591,-23.449 773.667,-17.9831 763.163,-16.5961 764.591,-23.449"/>
</g>
<!-- Node12 -->
<g id="node12" class="node"><title>Node12</title>
<g id="a_node12"><a xlink:href="a00006.html" target="_top" xlink:title="ABInertia.h">
<polygon fill="white" stroke="black" points="858.5,-0.5 858.5,-19.5 923.5,-19.5 923.5,-0.5 858.5,-0.5"/>
<text text-anchor="middle" x="891" y="-7.5" font-family="Helvetica,sans-Serif" font-size="10.00">ABInertia.h</text>
</a>
</g>
</g>
<!-- Node1&#45;&gt;Node12 -->
<g id="edge11" class="edge"><title>Node1&#45;&gt;Node12</title>
<path fill="none" stroke="midnightblue" d="M585.266,-60.087C640.865,-52.7762 747.44,-38.1153 848.414,-20.0014"/>
<polygon fill="midnightblue" stroke="midnightblue" points="849.264,-23.4046 858.481,-18.1804 848.018,-16.5164 849.264,-23.4046"/>
</g>
<!-- Node13 -->
<g id="node13" class="node"><title>Node13</title>
<g id="a_node13"><a xlink:href="a00013.html" target="_top" xlink:title="PTransform.h">
<polygon fill="white" stroke="black" points="942,-0.5 942,-19.5 1018,-19.5 1018,-0.5 942,-0.5"/>
<text text-anchor="middle" x="980" y="-7.5" font-family="Helvetica,sans-Serif" font-size="10.00">PTransform.h</text>
</a>
</g>
</g>
<!-- Node1&#45;&gt;Node13 -->
<g id="edge12" class="edge"><title>Node1&#45;&gt;Node13</title>
<path fill="none" stroke="midnightblue" d="M585.095,-61.4271C652.658,-54.8997 798.097,-39.9917 931.776,-19.9267"/>
<polygon fill="midnightblue" stroke="midnightblue" points="932.425,-23.3683 941.788,-18.4106 931.377,-16.4472 932.425,-23.3683"/>
</g>
<!-- Node14 -->
<g id="node14" class="node"><title>Node14</title>
<g id="a_node14"><a xlink:href="a00012.html" target="_top" xlink:title="Operators.h">
<polygon fill="white" stroke="black" points="1036,-0.5 1036,-19.5 1104,-19.5 1104,-0.5 1036,-0.5"/>
<text text-anchor="middle" x="1070" y="-7.5" font-family="Helvetica,sans-Serif" font-size="10.00">Operators.h</text>
</a>
</g>
</g>
<!-- Node1&#45;&gt;Node14 -->
<g id="edge13" class="edge"><title>Node1&#45;&gt;Node14</title>
<path fill="none" stroke="midnightblue" d="M585.134,-62.8917C665.016,-58.1603 855.9,-45.206 1025.68,-20.0408"/>
<polygon fill="midnightblue" stroke="midnightblue" points="1026.43,-23.4676 1035.8,-18.5224 1025.39,-16.5451 1026.43,-23.4676"/>
</g>
</g>
</svg>
